<?xml version="1.0" encoding="UTF-8"?>
<svg version="1.1" viewBox="0 0 100 100" xmlns="http://www.w3.org/2000/svg">
<g transform="matrix(2.0929 0 0 2.0929 -18.833 -97.71)">
<g transform="translate(8.9092 48.744)">
<path d="m1.2818 31.075c0.67001 0.86633 2.4557 2.3806 3.9682 3.365 2.3098 1.5034 2.75 2.4918 2.75 6.1749 0 2.7226 0.45099 4.385 1.1896 4.385 0.65427 0 3.269-2.25 5.8104-5l4.6208-5h11.113c10.497 0 11.284-0.14359 14.19-2.5889-6.2379 13.149-52.884-12.579-43.641-1.336zm46.718-26.575c-2.0328-1.4119-0.225 4.5-0.5 4.5s-0.5-0.64948-0.5-1.4433-1.0001-2.1438-2.2225-3c-1.8186-1.2738-5.6104-1.5567-20.864-1.5567h-18.641l-5.2727 5.2727c-0.95439-14.309 14.411-8.4523 24-8.2727" fill="#fafaf8"/>
<path d="m45.686 19.307c0.65218-0.465 1.3722-3.0868 1.6001-5.8261l0.41433-4.9807-0.10012 5.4214c-0.072231 3.9114-0.51789 5.5341-1.6001 5.8261-1.0423 0.28123-1.1382 0.14674-0.31421-0.44073zm-45.686-10.248c0-0.51754 0.44485-1.2159 0.98855-1.5519 0.56686-0.35034 0.73451 0.051058 0.39301 0.94098-0.66479 1.7324-1.3816 2.0494-1.3816 0.61095zm44.709-3.2664c-1.6502-1.727-3.3105-1.8512-21.156-1.5833-10.651 0.15989-19.156-0.046799-18.9-0.4593 0.25575-0.4125 8.9386-0.75 19.295-0.75 17.059 0 19.052 0.18004 21.191 1.9139 1.2984 1.0527 2.1358 2.1027 1.8608 2.3333s-1.3058-0.4239-2.2907-1.4546z" fill="#dd914f"/>
<path d="m33.093 13.612c-0.92073-1.1094-0.95288-2.0057-0.12731-3.5483 1.9118-3.5722 6.4429-1.9909 5.8717 2.0492-0.3989 2.8213-3.8908 3.7325-5.7444 1.4991z" fill="#db9828"/>
<path d="m36.5 20.016c-1.1-0.46408-3.575-0.64825-5.5-0.40927-3.7987 0.47158-6.1507-1.0117-9.2643-5.8425-0.96993-1.5048-2.8521-3.4493-4.1825-4.3211-2.9058-1.9039-4.768-1.1347-11.476 4.7405-3.2736 2.867-4.6342 3.5416-5.2347 2.5953-1.9972-3.1472 0.35587-10.873 3.7028-12.157 0.89032-0.34165 9.907-0.62118 20.037-0.62118 17.085 0 18.563 0.14478 20.418 2 1.5006 1.5006 2 3.3333 2 7.3395 0 4.7513-0.28056 5.4673-2.5471 6.5-2.9193 1.3301-5.1031 1.3785-7.9529 0.17617zm2.3375-7.9026c0.57124-4.0401-3.9599-5.6214-5.8717-2.0492-0.82557 1.5426-0.79342 2.4388 0.12731 3.5483 1.8536 2.2334 5.3455 1.3222 5.7444-1.4991z" fill="#d67a29"/>
<path d="m9 44.291c0.825-0.30335 2.4-1.2803 3.5-2.1711 1.983-1.6057 1.9838-1.6003 0.09501 0.63049-1.0477 1.2375-2.6227 2.2145-3.5 2.1711-1.3538-0.067008-1.3682-0.16236-0.09501-0.63049zm-3-9.2906c-0.90129-0.58246-1.0246-0.97549-0.30902-0.98469 0.65504-0.008422 1.4691 0.43469 1.809 0.98469 0.7673 1.2415 0.42112 1.2415-1.5 0zm16.75-0.66228c0.6875-0.27741 1.8125-0.27741 2.5 0 0.6875 0.27741 0.125 0.50439-1.25 0.50439s-1.9375-0.22697-1.25-0.50439zm11.53-0.07996c7.3584-0.38041 8.4898-2.2578 1.3606-2.2578-2.3325 0-4.7345-0.49349-5.3376-1.0966s-3.5057-1.3907-6.45-1.75c-4.4032-0.5374-5.3534-0.99706-5.3534-2.5898 0-1.3794 1.0068-2.1886 3.5-2.8131 1.925-0.48216 4.0625-1.6093 4.75-2.5047 0.6875-0.89542 1.25-1.1175 1.25-0.49361 0 0.62394-0.94878 1.799-2.1084 2.6112-1.1596 0.81223-1.844 1.9046-1.5209 2.4275 0.60557 0.97983 7.877 2.1646 15.416 2.5118 5.3398 0.2459 7.1389 2.4185 4.0969 4.9474-1.6325 1.3572-3.7075 1.706-9.2442 1.5541l-7.1392-0.19586zm-34.201-13.841c0.047984-1.1649 0.28494-1.4019 0.60417-0.60417 0.28887 0.72188 0.25334 1.5844-0.078947 1.9167-0.33229 0.33229-0.56864-0.25833-0.52522-1.3125z" fill="#329e8c"/>
<path d="m39.812 21.317c0.72188-0.28887 1.5844-0.25334 1.9167 0.07895 0.33229 0.33229-0.25833 0.56864-1.3125 0.52522-1.1649-0.04798-1.4019-0.28494-0.60417-0.60417zm-11-1c0.72188-0.28887 1.5844-0.25334 1.9167 0.07895 0.33229 0.33229-0.25833 0.56864-1.3125 0.52522-1.1649-0.04798-1.4019-0.28494-0.60417-0.60417zm4-1c0.72188-0.28887 1.5844-0.25334 1.9167 0.07895 0.33229 0.33229-0.25833 0.56864-1.3125 0.52522-1.1649-0.04798-1.4019-0.28494-0.60417-0.60417zm-27.812-3.6298c0-0.1721 1.4625-1.6346 3.25-3.25l3.25-2.9371-2.9371 3.25c-2.7378 3.0295-3.5629 3.7097-3.5629 2.9371zm13.924-4.4371-2.4243-2.75 2.75 2.4243c1.5125 1.3334 2.75 2.5709 2.75 2.75 0 0.78427-0.8098 0.14598-3.0757-2.4243z" fill="#62735f"/>
<path d="m8.232 41c0-1.925 0.2058-2.7125 0.45732-1.75 0.25153 0.9625 0.25153 2.5375 0 3.5-0.25153 0.9625-0.45732 0.175-0.45732-1.75zm6.768-2.5c1.8658-1.925 3.6173-3.5 3.8923-3.5s-1.0266 1.575-2.8923 3.5-3.6173 3.5-3.8923 3.5 1.0266-1.575 2.8923-3.5zm-12.595-6.75-1.905-2.25 2.25 1.905c2.1144 1.7902 2.7052 2.595 1.905 2.595-0.18976 0-1.2023-1.0125-2.25-2.25zm19.845-2.4393c0.9625-0.25153 2.5375-0.25153 3.5 0 0.9625 0.25153 0.175 0.45732-1.75 0.45732s-2.7125-0.2058-1.75-0.45732zm14.562-0.99379c0.72188-0.28887 1.5844-0.25334 1.9167 0.07895 0.33229 0.33229-0.25833 0.56864-1.3125 0.52522-1.1649-0.04798-1.4019-0.28494-0.60417-0.60417zm10.46-4.3169c0-2.475 0.19502-3.4875 0.43337-2.25s0.23835 3.2625 0 4.5-0.43337 0.225-0.43337-2.25zm-21.022 2.3107c0.9625-0.25153 2.5375-0.25153 3.5 0 0.9625 0.25153 0.175 0.45732-1.75 0.45732s-2.7125-0.2058-1.75-0.45732zm-26.171-2.894c0.047984-1.1649 0.28494-1.4019 0.60417-0.60417 0.28887 0.72188 0.25334 1.5844-0.078947 1.9167-0.33229 0.33229-0.56864-0.25833-0.52522-1.3125zm20.734-0.099781c0.72188-0.28887 1.5844-0.25334 1.9167 0.07895 0.33229 0.33229-0.25833 0.56864-1.3125 0.52522-1.1649-0.04798-1.4019-0.28494-0.60417-0.60417zm4.1875-0.31689c-0.825-0.53316-1.05-1.0107-0.5-1.0612 0.55-0.0505 1.8126-0.24626 2.8058-0.43502 1.4577-0.27704 1.5787-0.06952 0.62756 1.0765-1.3841 1.6678-1.0714 1.623-2.9334 0.41971z" fill="#177384"/>
<path d="m9 40.582c0-4.3392-0.85798-6.5818-2.5181-6.5818-0.71726 0-2.4689-1.3843-3.8926-3.0763-2.2171-2.6349-2.4938-3.6751-1.9287-7.25 0.51528-3.2594 1.6418-5.0499 5.1428-8.1737 7.1752-6.4022 8.7194-6.976 12.167-4.5213 1.6014 1.1403 3.1898 2.9498 3.5299 4.0212 0.34004 1.0714 1.7408 2.8309 3.1128 3.9101 2.3084 1.8157 2.3599 2.0313 0.69089 2.8878-0.992 0.50906-3.0411 1.2214-4.5536 1.5829-1.8325 0.43807-2.75 1.3065-2.75 2.6031 0 2.4581 2.8612 4.0161 7.3752 4.0161 1.9287 0 3.7848 0.45 4.1248 1s2.5899 1 5 1 4.6347 0.409 4.9437 0.9089c0.31878 0.5158-4.0299 1.0564-10.055 1.25l-10.617 0.3411-4.2986 4.75c-2.3642 2.6125-4.563 4.75-4.8862 4.75-0.32317 0-0.58759-1.5382-0.58759-3.4182zm35.587-11.44c-0.29183-0.47219-3.1309-1.1541-6.309-1.5154-3.1781-0.36128-7.7325-0.98744-10.121-1.3915l-4.3425-0.73459 2.8618-2.1094c4.181-3.0818 6.9169-3.6798 10.869-2.3756 2.4997 0.82499 4.3716 0.8609 6.4843 0.12439l2.9701-1.0354v4.948c0 4.5025-1.0536 6.2884-2.4126 4.0894z" fill="#08687c"/>
</g>
</g>
</svg>
